<?xml version="1.0" encoding="utf-8"?>
<!-- Generator: Adobe Illustrator 19.0.0, SVG Export Plug-In . SVG Version: 6.00 Build 0)  -->
<svg version="1.1" id="Layer_1" xmlns="http://www.w3.org/2000/svg" xmlns:xlink="http://www.w3.org/1999/xlink" x="0px" y="0px"
	 viewBox="0 0 167.4 167.4" style="enable-background:new 0 0 167.4 167.4;" xml:space="preserve">
<style type="text/css">
	.st0{fill:#F5EEDE;}
</style>
<g>
	<circle class="st0" cx="83.4" cy="83.3" r="68.4"/>
	<path d="M83.5,167.4C37,167.3-0.1,129.9,0,83.2C0.1,36.9,37.7-0.2,84.4,0c46.1,0.2,83.2,37.8,83,84.2
		C167.2,130.3,129.7,167.5,83.5,167.4z M70.1,112.1c0,7.8,0.1,15.6,0,23.5c0,2.6,0.8,3.6,3.4,3.5c4-0.2,8-0.3,12,0.1
		c4.9,0.5,6.6-0.8,6.4-6.1c-0.4-14.5-0.1-29-0.1-43.4c0-2.4-0.3-4.6,3.4-4.5c3.7,0.1,8.7,1.8,10.9-0.9c2-2.5,1.3-7.3,1.7-11
		c0.7-6.1,0.6-6.1-5.7-6.1c-11.6,0-11.6,0-10.3-11.5c0.3-3,1.6-4.4,4.7-4.6c3.8-0.3,9.1,1.9,11.2-1.3c1.8-2.8,0.5-7.7,0.6-11.7
		c0-1-0.1-2,0-3c0.2-2.1-0.7-3-2.9-2.9c-5.5,0.1-11-0.2-16.5,0.2c-12.7,1-18.7,7.7-18.8,20.6c0,3.7-0.1,7.3,0,11
		c0.1,2.3-0.8,3.1-3.1,3.2c-8,0.4-8,0.5-8,8.7c0,1,0,2,0,3c0.1,8-0.4,6.6,6.7,6.5c3.5-0.1,4.6,0.9,4.5,4.5
		C69.9,97.1,70.1,104.6,70.1,112.1z"/>
</g>
</svg>
