<?xml version="1.0" encoding="utf-8"?>
<!-- Generator: Adobe Illustrator 19.0.0, SVG Export Plug-In . SVG Version: 6.00 Build 0)  -->
<svg version="1.1" id="Layer_1" xmlns="http://www.w3.org/2000/svg" xmlns:xlink="http://www.w3.org/1999/xlink" x="0px" y="0px"
	 viewBox="0 0 167.4 167.4" style="enable-background:new 0 0 167.4 167.4;" xml:space="preserve">
<style type="text/css">
	.st0{fill:#F5EEDE;}
</style>
<g>
	<circle class="st0" cx="83.5" cy="80.3" r="68.4"/>
	<path d="M83.3,167.4C37,167.2-0.1,129.9,0,83.6C0.1,37.1,37.6-0.2,84.1,0c46.3,0.2,83.5,37.6,83.3,83.8
		C167.3,130.4,129.9,167.5,83.3,167.4z M132.1,85.7c0-6.7,0.3-13.3-0.1-20c-0.8-17-9.1-26.8-25.7-28.2c-15.9-1.3-32-1.6-47.9,0.3
		c-12.6,1.5-21,9.9-22.3,22.6c-1.8,16.6-1.7,33.3,0,49.8c1.3,12.9,10.2,21.6,23.3,22.8c16.3,1.5,32.6,1.6,48.8-0.1
		c12.7-1.3,20.9-9.5,23-22C132.8,102.7,132,94.2,132.1,85.7z"/>
	<path d="M84.1,46.1c6.5,0,13-0.2,19.5,0c12.5,0.4,19.2,6.9,19.5,19.3c0.3,13.3,0.3,26.7,0,40c-0.3,12.5-6.8,19.1-19.4,19.4
		c-13.3,0.4-26.7,0.4-40,0c-12.6-0.4-19-6.9-19.3-19.5c-0.3-13.3-0.3-26.7,0-40c0.3-12.2,6.9-18.7,19.1-19.2
		C70.4,45.9,77.2,46.1,84.1,46.1z M84.1,110.3c13.6-0.1,24.5-11,24.5-24.9c0.1-13.6-11.1-24.8-24.7-24.9c-13.9,0-25.2,11.3-25.1,25
		C59.1,99.6,70,110.4,84.1,110.3z M115.5,59.7c-0.3-3.5-2-5.7-5.6-5.8c-3.5-0.1-5.7,1.8-5.9,5.4c-0.2,3.8,1.9,6,5.7,6
		C113.3,65.3,115,63.1,115.5,59.7z"/>
	<path d="M83.9,69.4c8.8,0,16.1,7.5,16,16.5c-0.1,8.6-7.6,15.9-16.2,15.7c-8.8-0.1-15.9-7.3-16-15.9C67.6,76.8,75,69.4,83.9,69.4z"
		/>
</g>
</svg>
