<?xml version="1.0" encoding="utf-8"?>
<!-- Generator: Adobe Illustrator 19.0.0, SVG Export Plug-In . SVG Version: 6.00 Build 0)  -->
<svg version="1.1" id="Layer_1" xmlns="http://www.w3.org/2000/svg" xmlns:xlink="http://www.w3.org/1999/xlink" x="0px" y="0px"
	 viewBox="0 0 167.4 167.6" style="enable-background:new 0 0 167.4 167.6;" xml:space="preserve">
<style type="text/css">
	.st0{fill:#F5EEDE;}
</style>
<g>
	<circle class="st0" cx="83.4" cy="82" r="68.4"/>
	<path d="M0,84C0,37.3,37.6-0.2,84.2,0c46.1,0.2,83.2,37.8,83.2,84.1c0,46.1-37.7,83.6-83.7,83.5C37.3,167.5,0,130.2,0,84z
		 M83.7,50.5C83.7,50.5,83.7,50.5,83.7,50.5c-10.7,0-21.3,0-32,0c-10.1,0-15.7,5.6-15.7,15.8c-0.1,11.7,0,23.3,0,35
		c0.1,10.3,5.5,15.8,15.7,15.9c21.3,0.1,42.6,0.1,63.9,0c10.2,0,15.6-5.5,15.7-15.9c0.1-11.7,0.1-23.3,0-35
		c0-10.5-5.5-15.8-16.1-15.8C104.7,50.5,94.2,50.5,83.7,50.5z"/>
	<path d="M74.5,64.4c9.2,6.1,17.7,11.7,26.7,17.6c-9.1,6-17.6,11.6-26.7,17.6C74.5,87.7,74.5,76.5,74.5,64.4z"/>
</g>
</svg>
