<svg width="24" height="31" viewBox="0 0 24 31" fill="none" xmlns="http://www.w3.org/2000/svg">
<g clip-path="url(#clip0)">
<path d="M4.53291 15.5106C4.53291 19.4604 4.53291 23.4102 4.53291 27.3413C4.53291 27.8115 4.53292 28.2817 4.42006 28.7331C4.17555 29.824 3.19749 30.5764 2.18182 30.5576C1.12853 30.52 0.225705 29.6736 0.0564262 28.545C-1.01963e-07 28.2253 -1.15939e-07 27.9055 -1.29094e-07 27.6046C-4.818e-07 19.5356 -8.35327e-07 11.4479 -1.18803e-06 3.37889C-1.2127e-06 2.81463 -1.23736e-06 2.25037 0.300939 1.74253C0.789967 0.914946 1.73041 0.444725 2.59561 0.614004C3.61128 0.802091 4.43887 1.64849 4.4953 2.66416C4.55172 4.0372 4.53291 5.41024 4.53291 6.80209C4.53291 9.69864 4.53291 12.5952 4.53291 15.5106Z" fill="black"/>
<path d="M13.9373 15.567C13.9373 19.5357 13.9373 23.5231 13.9373 27.4918C13.9373 28.0184 13.9373 28.5639 13.7304 29.0717C13.3354 30.031 12.3761 30.6517 11.4545 30.5576C10.4576 30.4636 9.63006 29.6548 9.46078 28.6015C9.40436 28.1877 9.40436 27.7739 9.40436 27.3601C9.40436 19.4416 9.40436 11.5231 9.40436 3.58584C9.40436 3.24728 9.40436 2.88991 9.44197 2.55136C9.57364 1.42283 10.5893 0.520004 11.6802 0.538813C12.7711 0.557623 13.7868 1.47925 13.8997 2.58897C13.9373 2.98396 13.9373 3.39775 13.9373 3.81154C13.9373 7.72377 13.9373 11.6548 13.9373 15.567Z" fill="black"/>
<path d="M18.8088 15.4918C18.8088 11.5795 18.8088 7.66732 18.8088 3.75509C18.8088 3.51058 18.8088 3.24726 18.8088 3.00274C18.8652 1.61089 19.8057 0.57641 21.0282 0.557602C22.2884 0.557602 23.3229 1.59208 23.3229 3.02155C23.3417 9.09679 23.3417 15.172 23.3417 21.2473C23.3417 23.3726 23.3417 25.498 23.3417 27.6422C23.3417 28.1125 23.3229 28.5827 23.1536 29.0341C22.7774 29.9933 21.837 30.6328 20.8966 30.5764C19.8997 30.5012 19.0345 29.7112 18.8652 28.6579C18.79 28.2065 18.79 27.7175 18.79 27.2473C18.8088 23.3162 18.8088 19.404 18.8088 15.4918Z" fill="black"/>
</g>
<defs>
<clipPath id="clip0">
<rect width="30" height="23.3417" fill="white" transform="translate(0 30.5576) rotate(-90)"/>
</clipPath>
</defs>
</svg>
