<?xml version="1.0" encoding="utf-8"?>
<!-- Generator: Adobe Illustrator 21.0.0, SVG Export Plug-In . SVG Version: 6.00 Build 0)  -->
<svg version="1.1" id="Layer_1" xmlns="http://www.w3.org/2000/svg" xmlns:xlink="http://www.w3.org/1999/xlink" x="0px" y="0px"
	 viewBox="0 0 447.3 244.3" style="enable-background:new 0 0 447.3 244.3;" xml:space="preserve">
<style type="text/css">
	.st0{display:none;}
	.st1{display:inline;}
	.st2{fill:none;stroke:#ED1A4F;stroke-miterlimit:10;}
</style>
<g id="Layer_1_1_">
	<path id="XMLID_9_" d="M90.5,109.6c1.2-1,2.4-2.2,3.6-2.1c2.6-7.1,4.7-14.2,4.9-21.9c-3.3,0.6-6.5,0.9-9.6,0.1
		c-3.9-1-7.6-1.2-11.5-1.3c-6.5-0.1-13-0.1-19.5-0.3c-1.7,0-3.4,0.1-5.1-1c-3.8-2.5-8.6-2.6-12.1-0.9c-4.6,2.2-9,1.9-13.6,2
		c-6.3,0.1-12.7,0.2-19,0c-2.8-0.1-5.2,1.2-5.9,3.3c-1.1,3.6-2.9,7-2.6,11.1c0.7,8.7,6.3,14.2,14.9,14.1c6.3-0.1,12.7-0.1,19-0.5
		c3.7-0.2,4.8,1,4.8,4.6c0.1,25.7,1,72.8,2.4,98.5c0.2,3.1-1.5,7.4,1.9,8.8c4.2,1.8,5.8-3,7.6-5.5c3.7-4.8,8-9.5,8.9-15.7
		c0.8-4.9,1.1-9.9,1.7-14.8c1.6-13.8,2.1-49.1,3.1-62.9c0.3-3.6,0.3-7.1,0.1-10.7c-0.1-3.1,0.8-4.4,4.1-4.2c5.8,0.2,11.7,0.1,17.5,0
		C87.8,110.2,89.6,110.4,90.5,109.6z"/>
	<path id="XMLID_19_" d="M160.8,175.9c-0.4,0.1-0.8,0.1-1.1,0.2c1.1-3.9-2.4-6.1-3-9.3c-1.4-8-4.6-15.5-6.3-23.4
		c-1.9-8.5-4.3-16.8-5.3-25.5c-0.5-4.4-2.3-8.2-7.3-10.7c-3.8-1.9-7.8-0.7-11.4-2.4c-7.2-3.4-15-2.2-22.2-0.9
		c-0.2,8.5-2.8,16.4-6,24.2c0.1,1.2-0.6,2.6-1.1,3.9c-2.8,7.1-4.2,14.6-6.9,21.7c-1.6,4.2-3.4,8.5-4.7,12.9
		c-1.8,5.9-6.3,11.5-1.7,18c0.4,0.5,0.3,1.2,0.5,1.9c0.9,4.3,3.6,6.3,8.6,6.5c4.6,0.2,8.4-1.9,12.6-2.4c8.3-0.8,16.7-0.7,25-0.5
		c5.5,0.1,11-0.4,16.2,2.3c1.9,1,4.8,1.1,6.5-1.4c0.8-1.2,1.2-3.5,3.7-1.9c1.6,1,4.3,0.8,6,1.7C162.3,185.9,161.9,180.7,160.8,175.9
		z M131.2,166.6c-0.5,1.4-2,0.8-2,0.8c-4.1-0.4-7.1-0.4-10-1c-3.9-0.7-7.1-1.9-4.4-6.7c2.2-4,4.8-7.8,6-12.2
		c0.3-1.2,1.5-1.4,2.4-0.4c0.9,1.1,2.2,1.9,2.7,3.5c1.3,3.9,2.3,7.9,5,11.3C131.9,163.2,131.8,165.1,131.2,166.6z"/>
	<path id="XMLID_20_" d="M242.1,88.7c-3.4-5.1-8.6-5.9-13.5-7c-4.7-1.1-12.6,2.8-12.7,6.3c-0.2,5.1-3,8.9-4.8,13.2
		c-3.7,9-7.4,18-11.1,27.1c-3,7.3-5.4,15.1-9.7,21.9c-0.6,1,0.3,3.1-1.6,3c-2.1-0.1-1.4-2.2-1.7-3.5c-3.1-11.3-3.4-22.9-4.7-34.5
		c-0.8-6.5-1-13.2-4.6-19.2c-4.1-6.8-17.5-12.2-24.9-4.3c-1.8,1.9-2.1,4.5-0.4,6.3c4,4.2,5.4,9.3,6,14.8c1,8.5,1.9,17,2.9,25.5
		c0.3,2.6,1,5.1,1.6,7.6c0.6,2.9,0.9,6,1.1,9c3.9,8.1,4.7,18.1,6.8,26.6c0.2,0.9-0.4,1.5-1.1,1.6c0.7,2.3,1.9,4.3,3.2,6.3
		c5,7.8,11.9,11.9,20.8,11c3.4-0.4,6.4-2.6,7.4-5.4c2.7-7.3,5.5-14.5,6.6-22.3c0.5-3.2,1.8-6.3,2.7-9.6c0.5,0.5,0.9,0.7,0.9,0.9
		c0.3,1.1,0.6,2.2,0.7,3.4c0.9,16.9,4.2,33.2,9.1,49.4c2.6,8.6,6.8,16.2,10.5,24.2c2.1,4.4,4.4,4,7.9,0.8c2-1.8,1.9-3.4,1.8-5.5
		c-0.5-6.2-1.1-12.4-1.6-18.7c-0.1-1.3-0.6-3.1,0.1-3.8c3.2-3.5,1.5-7.1,0.4-10.5c-1.4-4.4-3.1-8.8-2.6-13.3
		c1.1-11.1,0.3-22.2-0.2-33.3c0-0.5,0-1,0.1-1.5c1.9-7.8,0.7-15.8,1.9-23.7c1-6.6,1.9-13.3,3-19.9c0.7-4.3,1.2-8.6,2-12.9
		C245,95.2,244.3,91.9,242.1,88.7z"/>
	<path id="XMLID_13_" d="M368.2,143.8c-2.3-14.2-5.1-29.2,2.4-41.6c-0.1-3.3,0.4-6.5,0-9.6c-0.5-5-3.2-7.2-7.4-8
		c-1.8-0.3-3.7-0.3-5.6-0.4c-16-0.4-17,0.6-17.2,18.2c-0.2,15.9-0.1,31.8-0.2,47.7c0,1.9,1,4.8-2.4,4.9c-7.8,0.1-15.6,0.2-23.4,0
		c-2,0-3.1-1-2.6-4c0.9-5.9,1.6-12,1.3-18c-0.6-12.8,2.1-25.5-2-38.4c-3.5-11-16.1-16-24.5-11.1c-2.8,1.6-3.3,3.2-3.2,6.2
		c0.4,6.5,2.2,13,2.2,19.4c0,35.1,2.5,70,3.3,105.1c0.1,2.4-0.3,4.9,1.4,7.5c1-3.5,2.6-6.5,5.2-8.5c3.7-2.8,6.7-6.2,9-10.6
		c2.6-5.1,5.7-9.9,5.6-16c-0.1-3.5,2.8-4.9,4.5-4.9c7.7-0.1,14.8-3.6,22.4-3.8c1.3,0,3.2-0.5,3.1,1.6c-0.1,5.6,2.8,10.5,2.9,16
		c0.2,7.7,3.8,14.4,5.5,21.6c0.2,1,1.2,1.7,1.9,1.1c3.5-3,8.1-5,8.7-10.8c0.1-1.1,0.1-2.5,0.7-3c4.1-3.5,4.9-8.3,4.8-13.5
		c-0.1-6.4-0.2-12.8,0-19.2C365.3,162.8,364.1,153.5,368.2,143.8z"/>
	<path id="XMLID_16_" d="M441.9,157.6c-0.2-13.4-5.9-23.8-18.3-29.9c-4.6-2.3-10.3-6.1-16.5-1.6c-1.4,1-3.6,1-5.9-1.3
		c-5.5-5.4-13.4-4.1-17.9,2.3c-2.5,3.5-4.4,7.3-6.9,11.4c0-0.1-0.1-0.3-0.1-0.4c-6.1,12-0.8,26.7,0.9,39.6
		c2.9,6.4,6.7,11.9,11.6,16.9c6,6.1,13.7,8.9,21.7,8.6c12.7-0.5,20.7-8.7,25.8-18.9C440.5,176.1,442.1,167,441.9,157.6z
		 M419.1,165.3c-1.4,3.2-1.9,6.9-4.1,9.8c-1.7,2.1-2.9,4.7-6.5,4.7c-3.2-0.1-5.1-2.3-6.2-4.3c-3.2-6-6.8-12.1-5.3-18.7
		c-1-9.1,3-16.1,7.6-22.9c2.5-3.7,5.1-2.5,8-0.7c4.6,2.8,6.5,7.7,7.4,11.9C421.3,151.5,421.9,158.6,419.1,165.3z"/>
	<path id="XMLID_46_" d="M144.2,219.5c-10.6-0.7-22,1-33.4,2.4c-5.4,0.6-11.3,0.4-16.6,2.6c-4,1.7-8.1-0.6-10.2-3.8
		c-2.1-3.3-2.6-6.2-1.2-9.7c1.9-4.8,7.6-5.6,12.4-6c8.4-0.6,16.9-2.8,25.3-1.5c9,1.4,18.3,0.1,27.1,2.6c3.2,0.9,7.1,0.9,10.1,2.5
		c1.8,1,3.7,1.9,4.1,3.8c1.5,6.7,0.8,7.3-8.8,7.1C150.5,219.5,147.9,219.5,144.2,219.5z"/>
	<path id="XMLID_45_" d="M414.8,82.2c9.4-1.1,18.2,0.5,26.5,3.7c4.9,1.9,7.6,11.3,5,15.2c-1,1.6-2.6,0.9-3.8,0.5
		c-4.1-1.5-8.1-1.4-12.2,0c-0.6,0.2-1.3,0.3-1.9,0.3c-11.7-0.7-22.4,3.2-33.5,5.3c-7.3,1.4-11.8-1.1-12.7-7.4
		c-0.4-2.6-0.3-5.4,0.1-8c0.6-4.5,4.7-6.2,8.8-7.2C398.9,82.7,406.7,80.9,414.8,82.2z"/>
	<path id="XMLID_2_" d="M401,110.5c2.7-9.1,15.2-9.7,21.9-3.8c1.9,1.7-0.5,3.6-1.7,4.9c-1.6,2-4.4,3.1-4.2,6.3
		c0,0.3-0.3,0.8-0.3,0.8c-6.7-1.4-6.4,6.8-11.2,8.3c-1.7,0.5-3.1,2-4.9,0.7s-1.8-3.1-0.7-4.9c1.5-2.5,0.7-5.2,0.5-7.7
		C400.3,113.5,400.4,111.9,401,110.5z"/>
	<path id="XMLID_153_" d="M137.7,91c2.9,2.5,1.2,7.3,0,7.6c-3.2,0.6-7.2,3.5-10.3,0c-2.1-2.5-4.5-2.9-7.3-2.5
		c-3.1,0.5-6.7,1.4-7.8-2.5c-1.1-3.8,0.7-7.2,4.3-9.5C123.7,79.7,133,82.6,137.7,91z"/>
	<path id="XMLID_5_" d="M61.2,5c0.9,0.2,1.6,0.4,2.2,0.8c0.6,0.4,1.2,0.9,1.8,1.6c0.3,0.4,0.6,0.6,0.9,0.8c0.3,0.2,0.9,0.3,1.8,0.4
		c5.9,0.9,10.8,3.7,14.6,8.1c3.9,4.5,5.8,9.7,5.8,15.7c0,4.2-0.9,8-2.8,11.5c-1.9,3.5-4.6,6.6-8.1,9.2c-2.2,1.6-4.5,2.8-6.8,3.6
		c-2.4,0.8-4.9,1.2-7.5,1.3c-0.4,0-0.7,0-1,0c-0.5,0-1.1,0-1.7-0.1c-0.8-0.1-1.5-0.1-2.1-0.2c-1.7-0.3-3.3-0.7-4.6-1.3
		c-1.3-0.6-2.8-1.4-4.3-2.4c-2.9-2.1-5.1-4.6-6.4-7.5c-1.3-2.9-1.9-6.5-1.9-10.7c0-0.1,0-0.1,0-0.2c0-4,0.6-7.8,1.8-11.4
		c1.2-3.5,3.1-7.1,5.7-10.8c1.1-1.6,2.5-3.3,4-5c1.6-1.7,2.7-2.7,3.4-3.1c0.4-0.2,1-0.4,1.6-0.5s1.2-0.2,1.8-0.2c0.3,0,0.6,0,0.9,0
		C60.6,4.9,60.9,5,61.2,5z M60.3,17.2c-0.7,0.3-1.6,1.5-2.8,3.7s-2.1,4.3-2.8,6.5c-0.9,2.9-1.3,5.7-1.3,8.4c0,1.3,0.1,2.5,0.3,3.7
		c0.6,3.8,2,6.6,4.3,8.4c1,0.8,2.2,1.3,3.4,1.5c0.3,0.1,0.6,0.1,1,0.1c0.8,0,1.7-0.2,2.7-0.5c2.1-0.7,4-2,5.8-4
		c1.8-1.9,3.2-4.1,4.2-6.7c0.5-1.4,0.8-2.9,0.9-4.3c0.1-0.4,0.1-0.8,0.1-1.2c0-1.1-0.1-2.2-0.3-3.3c-0.5-2.7-1.6-5.2-3.1-7.4
		c-1.6-2.2-3.6-3.7-6-4.5c-0.6-0.2-1.3-0.3-2-0.4S63.2,17,62.6,17h-0.1c-0.4,0-0.7,0-1.1,0.1C60.8,17.1,60.5,17.1,60.3,17.2z"/>
	<path id="XMLID_8_" d="M108,61.4c-3.3-0.6-6-1.9-8-4s-3.5-4.9-4.5-8.6c-0.4-1.8-0.7-5.3-0.9-10.5c0-1.1,0-2.2,0-3.3
		c0-4.1,0.1-8.2,0.4-12.6c0.1-2.3,0.3-4.7,0.4-7.3c0.1-2.6,0.1-4.6,0.2-6.1c0.1-2.9,0.3-4.8,0.6-5.7c0.3-0.9,0.9-1.6,1.8-2.2
		c1.2-0.7,2.5-1.1,3.9-1.1c0.5,0,1,0.1,1.6,0.2c1.9,0.3,3.4,1.2,4.3,2.7c0.2,0.4,0.4,1.1,0.4,2.1c0,0.9-0.1,3.2-0.2,6.6
		c-0.2,2.1-0.3,4.3-0.3,6.7c-0.2,2.4-0.3,4.2-0.3,5.5c-0.4,4.6-0.6,8.2-0.6,11c-0.1,2.7,0,5.1,0.1,7.2c0.3,3.2,0.8,5.8,1.5,7.7
		c0.7,1.8,1.5,2.9,2.6,3.2c0.9,0.3,2.2,0.2,4-0.5c1.9-0.6,4.2-1.7,7.1-3.3c2-1.2,3.4-1.9,4.2-2.2c0.7-0.3,1.6-0.4,2.7-0.4
		c1.2,0,2.3,0.2,3.4,0.7c1.1,0.5,1.9,1.2,2.2,2c0.2,0.4,0.3,0.9,0.3,1.4c0,0.2,0,0.3,0,0.5c-0.1,0.7-0.3,1.3-0.7,1.8
		s-1.5,1.3-3.5,2.4c-1.9,1.2-3.8,2.2-5.5,3.1c-3.1,1.4-6.1,2.4-9.1,3c-1.6,0.3-3.2,0.4-4.6,0.4C110.3,61.7,109.1,61.6,108,61.4z"/>
	<path id="XMLID_11_" d="M143.6,1.5c1.7,0.1,3.6,0.2,5.7,0.4c2.2,0.2,4.1,0.5,5.7,0.8c6.9,1.2,12.7,3.4,17.5,6.6
		c4.7,3.2,7.9,7.2,9.7,11.9c0.4,1.3,0.7,2.8,0.9,4.7c0.1,0.7,0.1,1.3,0.1,2c0,1.1-0.1,2.1-0.3,2.9c-0.9,4.7-3.6,9.3-8,13.7
		c-4.4,4.3-10.2,8.2-17.4,11.5c-3.6,1.7-6.3,2.8-8.2,3.3c-1.2,0.3-2.2,0.5-3.1,0.5c-0.7,0-1.3-0.1-1.8-0.2c-0.7-0.2-1.4-0.4-2-0.7
		c-0.6-0.3-1.1-0.7-1.5-1c-0.3-0.4-0.5-1.2-0.6-2.6c-0.2-1.3-0.3-4.4-0.3-9.2c-0.1-4.4-0.2-9.4-0.3-14.8c-0.2-5.4-0.4-10.3-0.6-14.8
		c-0.1-1.7-0.2-4.3-0.4-7.8c-0.2-0.3-0.6-0.7-1.1-1.2c-0.6-0.7-1-1.3-1.1-1.8c0-0.1,0-0.1,0-0.2c0-0.4,0.2-0.9,0.4-1.4
		c0.5-0.8,1.3-1.4,2.2-1.8s2-0.7,3.4-0.7c0.1-0.1,0.3-0.1,0.6-0.1S143.4,1.4,143.6,1.5z M151.8,28.3c0.1,2.8,0.3,5.7,0.3,8.7
		c0.1,3,0.1,5.1,0.1,6.4c0.1,1.3,0.1,2.4,0.1,3.4c0.1,1,0.1,1.5,0.2,1.6c0,0.1,0,0.1,0.1,0.1s0.3-0.1,0.6-0.2
		c0.3-0.2,1.1-0.6,2.4-1.3c4.6-2.7,8.3-5.7,11-9.1s4.1-6.8,4.3-10.2c0-0.2,0-0.3,0-0.6c0-2.8-1-5.5-3-8.2c-2.1-2.9-4.9-5.1-8.4-6.6
		c-1.1-0.5-2.5-1-4.3-1.5c-1.7-0.5-2.8-0.7-3.4-0.7c-0.2,0-0.3,0.3-0.3,0.9c-0.1,0.3-0.1,0.8-0.1,1.5c0,0.8,0,1.8,0.1,3.1
		c0,1.4,0,3.1,0.1,5.1C151.6,22.9,151.7,25.4,151.8,28.3z"/>
</g>
<g id="Layer_2" class="st0">
	<g id="XMLID_3_" class="st1">
		<g id="XMLID_24_">
			<rect id="XMLID_25_" x="0.5" y="-121.5" class="st2" width="446.3" height="446.3"/>
			<line id="XMLID_26_" class="st2" x1="0.5" y1="284.2" x2="446.8" y2="284.2"/>
			<line id="XMLID_27_" class="st2" x1="0.5" y1="243.6" x2="446.8" y2="243.6"/>
			<line id="XMLID_28_" class="st2" x1="0.5" y1="203.1" x2="446.8" y2="203.1"/>
			<line id="XMLID_29_" class="st2" x1="0.5" y1="162.5" x2="446.8" y2="162.5"/>
			<line id="XMLID_30_" class="st2" x1="0.5" y1="121.9" x2="446.8" y2="121.9"/>
			<line id="XMLID_31_" class="st2" x1="0.5" y1="81.3" x2="446.8" y2="81.3"/>
			<line id="XMLID_32_" class="st2" x1="0.5" y1="40.8" x2="446.8" y2="40.8"/>
			<line id="XMLID_33_" class="st2" x1="0.5" y1="0.2" x2="446.8" y2="0.2"/>
			<line id="XMLID_34_" class="st2" x1="0.5" y1="-40.4" x2="446.8" y2="-40.4"/>
			<line id="XMLID_35_" class="st2" x1="0.5" y1="-80.9" x2="446.8" y2="-80.9"/>
			<line id="XMLID_36_" class="st2" x1="406.2" y1="-121.5" x2="406.2" y2="324.8"/>
			<line id="XMLID_37_" class="st2" x1="365.7" y1="-121.5" x2="365.7" y2="324.8"/>
			<line id="XMLID_38_" class="st2" x1="325.1" y1="-121.5" x2="325.1" y2="324.8"/>
			<line id="XMLID_39_" class="st2" x1="284.5" y1="-121.5" x2="284.5" y2="324.8"/>
			<line id="XMLID_40_" class="st2" x1="244" y1="-121.5" x2="244" y2="324.8"/>
			<line id="XMLID_41_" class="st2" x1="203.4" y1="-121.5" x2="203.4" y2="324.8"/>
			<line id="XMLID_42_" class="st2" x1="162.8" y1="-121.5" x2="162.8" y2="324.8"/>
			<line id="XMLID_43_" class="st2" x1="122.3" y1="-121.5" x2="122.3" y2="324.8"/>
			<line id="XMLID_44_" class="st2" x1="81.7" y1="-121.5" x2="81.7" y2="324.8"/>
			<line id="XMLID_47_" class="st2" x1="41.1" y1="-121.5" x2="41.1" y2="324.8"/>
		</g>
	</g>
</g>
</svg>
