<?xml version="1.0" encoding="utf-8"?>
<!-- Generator: Adobe Illustrator 19.0.0, SVG Export Plug-In . SVG Version: 6.00 Build 0)  -->
<svg version="1.1" id="Layer_1" xmlns="http://www.w3.org/2000/svg" xmlns:xlink="http://www.w3.org/1999/xlink" x="0px" y="0px"
	 viewBox="-206 297.9 197.8 198.1" style="enable-background:new -206 297.9 197.8 198.1;" xml:space="preserve">
<style type="text/css">
	.st0{fill:#FFFFFF;}
</style>
<title>search</title>
<path class="st0" d="M-206,369c0.6-3.7,1.1-7.5,1.9-11.2c7.3-36,38.5-60.7,75.5-59.8c35.5,0.8,65.8,27.4,71.4,63
	c2.6,15.9-0.1,32.3-7.9,46.4c-1.6,3-1.5,4.7,1,7.1c16,15.8,31.3,32.4,48,47.4C-4,472.9-5,491.7-24,496h-3
	c-6.2-1.5-10.8-5.3-15.2-9.8c-15.5-15.8-31.3-31.3-46.8-47c-2.2-2.2-3.8-2.7-6.7-1.1c-38.5,20.5-85.2,4.5-103.4-35.3
	c-3.9-8.6-5.3-17.7-6.9-26.8V369z M-130.8,429.4c31.5-0.1,56.9-25.7,56.8-57.2c0-0.1,0-0.2,0-0.3c-0.2-31.2-26.1-56.9-57.3-56.6
	c-31.6,0.2-57,26-56.7,57.5c0,0,0,0,0,0.1C-187.7,404.3-162.2,429.6-130.8,429.4z"/>
</svg>
