<?xml version="1.0" encoding="utf-8"?>
<!-- Generator: Adobe Illustrator 21.0.0, SVG Export Plug-In . SVG Version: 6.00 Build 0)  -->
<svg version="1.1" id="Layer_1" xmlns="http://www.w3.org/2000/svg" xmlns:xlink="http://www.w3.org/1999/xlink" x="0px" y="0px"
	 viewBox="0 0 135.3 135.3" style="enable-background:new 0 0 135.3 135.3;" xml:space="preserve">
<style type="text/css">
	.st0{display:none;}
	.st1{display:inline;}
	.st2{fill:#FFFFFF;}
	.st3{fill:#FFFFFF;}
	.st4{fill:none;}
</style>
<g id="Layer_1_1_" class="st0">
	<g class="st1">
		<path class="st2" d="M-371.7-251.9c0.6-3.7,1.1-7.5,1.9-11.2c7.3-36,38.5-60.7,75.5-59.8c35.5,0.8,65.8,27.4,71.4,63
			c2.5,16.3,0,31.9-7.9,46.4c-1.6,3-1.5,4.7,1,7.1c16,15.8,31.3,32.4,48,47.4c12.1,11,11.1,29.8-7.9,34.1c-1,0-2,0-3,0
			c-6.2-1.5-10.8-5.3-15.2-9.8c-15.5-15.8-31.3-31.3-46.8-47c-2.2-2.2-3.8-2.7-6.7-1.1c-38.6,20.5-85.3,4.5-103.5-35.3
			c-3.9-8.6-5.3-17.7-6.8-26.8C-371.7-247.2-371.7-249.6-371.7-251.9z M-296.5-191.5c31.7-0.2,57-25.7,56.8-57.5
			c-0.1-31.2-26.1-56.9-57.3-56.6c-31.6,0.3-56.9,25.9-56.7,57.6C-353.6-216.7-327.9-191.3-296.5-191.5z"/>
	</g>
</g>
<g id="Layer_2">
	<g>
		<path class="st3" d="M67.3,81.3c-18.3,0-36.6,0-55,0c-2.2,0-4.4-0.2-6.6-0.8c-2.8-0.9-4.6-3.2-5.3-6.6c-0.8-4.2-0.8-8.5,0-12.8
			c0.6-3.3,2.4-5.7,5.3-6.6c2.2-0.7,4.4-0.9,6.6-0.9c36.8,0,73.5,0.2,110.3-0.1c11.6-0.1,13.7,8.1,11,21.6c-0.6,2.9-2.5,4.4-4.8,5.2
			c-2.2,0.7-4.4,0.9-6.6,0.9C104,81.3,85.7,81.3,67.3,81.3z"/>
		<path class="st3" d="M67.3,39.5c-17.9,0-35.8,0-53.7,0c-1.9,0-3.9,0-5.8-0.3c-4.8-0.6-7.1-3.6-7.6-9.6C0.1,28,0,26.2,0.1,24.5
			c0.2-8.8,2.8-12.1,9.9-12.3c8.5-0.2,16.9-0.1,25.4-0.1c28.9,0,57.7,0,86.6,0c1.7,0,3.3,0.1,5,0.2c1.7,0.1,3.4,0.7,4.6,2.1
			c4.5,5.1,3.4,11.6,2.6,17.7c-0.7,5.2-4.1,7.1-8.1,7.1c-16.4,0.1-32.7,0.2-49.1,0.2C73.7,39.5,70.5,39.5,67.3,39.5z"/>
		<path class="st3" d="M67.5,122.8c-18.6,0-37.2-0.5-55.8,0.2C-1.1,123.4-1.5,111.8,1,101.2c1.2-5.1,5.3-5.6,9-5.6
			c14.6-0.1,29.1,0,43.7-0.1c22.6,0,45.2,0,67.9,0c1.8,0,3.6,0.1,5.4,0.3c1.8,0.2,3.7,0.8,4.9,2.5c3.9,5.4,3.1,11.9,1.9,18
			c-1.1,5.4-4.9,6.5-8.9,6.5C105.8,122.8,86.7,122.8,67.5,122.8L67.5,122.8z"/>
	</g>
	<rect class="st4" width="135.3" height="135.3"/>
</g>
</svg>
